REM DIRINDEX 1\2,1\3,1\4,1\5,1\6
REM DIRNAME folder01,folder02,folder03,folder04,folder05,folder06
TITLE ""
FILE "Disc3Track20.mp3" MP3
  TRACK 01 AUDIO
    TITLE "3:cjc030_04627"
    INDEX 01 00:00:00
  TRACK 02 AUDIO
    TITLE "0:"
    INDEX 01 00:01:15
  TRACK 03 AUDIO
    TITLE "4:cjc030_04628"
    INDEX 01 00:01:22
  TRACK 04 AUDIO
    TITLE "0:"
    INDEX 01 00:04:03
  TRACK 05 AUDIO
    TITLE "5:cjc030_04629"
    INDEX 01 00:04:13
  TRACK 06 AUDIO
    TITLE "0:"
    INDEX 01 00:05:32
  TRACK 07 AUDIO
    TITLE "6:cjc030_04630"
    INDEX 01 00:05:46
  TRACK 08 AUDIO
    TITLE "0:"
    INDEX 01 00:10:57
  TRACK 09 AUDIO
    TITLE "3:cjc030_04631"
    INDEX 01 00:11:31
  TRACK 10 AUDIO
    TITLE "0:"
    INDEX 01 00:12:54
  TRACK 11 AUDIO
    TITLE "4:cjc030_04632"
    INDEX 01 00:12:61
  TRACK 12 AUDIO
    TITLE "0:"
    INDEX 01 00:14:70
  TRACK 13 AUDIO
    TITLE "5:cjc030_04633"
    INDEX 01 00:15:05
  TRACK 14 AUDIO
    TITLE "0:"
    INDEX 01 00:16:26
  TRACK 15 AUDIO
    TITLE "6:cjc030_04634"
    INDEX 01 00:16:38
  TRACK 16 AUDIO
    TITLE "0:"
    INDEX 01 00:19:46
  TRACK 17 AUDIO
    TITLE "3:cjc030_04635"
    INDEX 01 00:20:18
  TRACK 18 AUDIO
    TITLE "0:"
    INDEX 01 00:21:49
  TRACK 19 AUDIO
    TITLE "4:cjc030_04636"
    INDEX 01 00:21:57
  TRACK 20 AUDIO
    TITLE "0:"
    INDEX 01 00:22:70
  TRACK 21 AUDIO
    TITLE "5:cjc030_04637"
    INDEX 01 00:23:04
  TRACK 22 AUDIO
    TITLE "0:"
    INDEX 01 00:24:33
  TRACK 23 AUDIO
    TITLE "3:cjc030_04638"
    INDEX 01 00:25:13
  TRACK 24 AUDIO
    TITLE "0:"
    INDEX 01 00:26:22
  TRACK 25 AUDIO
    TITLE "4:cjc030_04639"
    INDEX 01 00:26:30
  TRACK 26 AUDIO
    TITLE "0:"
    INDEX 01 00:28:29
  TRACK 27 AUDIO
    TITLE "5:cjc030_04640"
    INDEX 01 00:28:37
  TRACK 28 AUDIO
    TITLE "0:"
    INDEX 01 00:29:46
  TRACK 29 AUDIO
    TITLE "6:cjc030_04641"
    INDEX 01 00:29:60
  TRACK 30 AUDIO
    TITLE "0:"
    INDEX 01 00:32:45
  TRACK 31 AUDIO
    TITLE "3:cjc030_04642"
    INDEX 01 00:33:21
  TRACK 32 AUDIO
    TITLE "0:"
    INDEX 01 00:34:40
  TRACK 33 AUDIO
    TITLE "4:cjc030_04643"
    INDEX 01 00:34:49
  TRACK 34 AUDIO
    TITLE "0:"
    INDEX 01 00:35:72
  TRACK 35 AUDIO
    TITLE "5:cjc030_04644"
    INDEX 01 00:36:07
  TRACK 36 AUDIO
    TITLE "0:"
    INDEX 01 00:37:26
  TRACK 37 AUDIO
    TITLE "6:cjc030_04645"
    INDEX 01 00:37:36
  TRACK 38 AUDIO
    TITLE "0:"
    INDEX 01 00:41:65
  TRACK 39 AUDIO
    TITLE "3:cjc030_04646"
    INDEX 01 00:42:35
  TRACK 40 AUDIO
    TITLE "0:"
    INDEX 01 00:43:64
  TRACK 41 AUDIO
    TITLE "4:cjc030_04647"
    INDEX 01 00:43:72
  TRACK 42 AUDIO
    TITLE "0:"
    INDEX 01 00:45:47
  TRACK 43 AUDIO
    TITLE "5:cjc030_04648"
    INDEX 01 00:45:57
  TRACK 44 AUDIO
    TITLE "0:"
    INDEX 01 00:47:09
  TRACK 45 AUDIO
    TITLE "6:cjc030_04649"
    INDEX 01 00:47:25
  TRACK 46 AUDIO
    TITLE "0:"
    INDEX 01 00:49:23
  TRACK 47 AUDIO
    TITLE "3:cjc030_04650"
    INDEX 01 00:49:70
  TRACK 48 AUDIO
    TITLE "0:"
    INDEX 01 00:51:16
  TRACK 49 AUDIO
    TITLE "4:cjc030_04651"
    INDEX 01 00:51:26
  TRACK 50 AUDIO
    TITLE "0:"
    INDEX 01 00:57:23
  TRACK 51 AUDIO
    TITLE "5:cjc030_04652"
    INDEX 01 00:57:29
  TRACK 52 AUDIO
    TITLE "0:"
    INDEX 01 00:58:50
  TRACK 53 AUDIO
    TITLE "6:cjc030_04653"
    INDEX 01 00:58:66
  TRACK 54 AUDIO
    TITLE "0:"
    INDEX 01 01:02:05
  TRACK 55 AUDIO
    TITLE "3:cjc030_04654"
    INDEX 01 01:02:50
  TRACK 56 AUDIO
    TITLE "0:"
    INDEX 01 01:03:67
  TRACK 57 AUDIO
    TITLE "4:cjc030_04655"
    INDEX 01 01:04:01
  TRACK 58 AUDIO
    TITLE "0:"
    INDEX 01 01:05:73
  TRACK 59 AUDIO
    TITLE "5:cjc030_04656"
    INDEX 01 01:06:06
  TRACK 60 AUDIO
    TITLE "0:"
    INDEX 01 01:07:25
  TRACK 61 AUDIO
    TITLE "6:cjc030_04657"
    INDEX 01 01:07:37
  TRACK 62 AUDIO
    TITLE "0:"
    INDEX 01 01:10:10
  TRACK 63 AUDIO
    TITLE "3:cjc030_04658"
    INDEX 01 01:10:57
  TRACK 64 AUDIO
    TITLE "0:"
    INDEX 01 01:12:44
  TRACK 65 AUDIO
    TITLE "4:cjc030_04659"
    INDEX 01 01:12:52
  TRACK 66 AUDIO
    TITLE "0:"
    INDEX 01 01:14:31
  TRACK 67 AUDIO
    TITLE "5:cjc030_04660"
    INDEX 01 01:14:41
  TRACK 68 AUDIO
    TITLE "0:"
    INDEX 01 01:16:28
  TRACK 69 AUDIO
    TITLE "6:cjc030_04661"
    INDEX 01 01:16:40
  TRACK 70 AUDIO
    TITLE "0:"
    INDEX 01 01:19:46
